<svg height="78" viewBox="0 0 149 78" width="149" xmlns="http://www.w3.org/2000/svg"><g fill="none" fill-rule="evenodd"><path d="m0 0h149v78h-149z" fill="none"/><path d="m22.6487083.97989767c4.885875-.11427906 9.7377084.83986047 14.2258334 2.79348838.9854166.4172093.7883333 2.01348837.1970833 3.51906976-.80625 2.19488372-3.5833333 4.69813949-4.1925 4.00883719l-.3742179-.4965524c-2.7479899-3.63679263-5.6107278-7.12205223-10.7520321-7.12205223-.46225-.03265116-.9227083-.03446511-1.3849583-.00906977-6.3837084.34465117-11.28212503 5.86269768-10.94170837 12.325814 0 8.0902325 5.57208337 10.3213953 15.99958337 15.3460465v-.0362791c12.73875 6.2037209 18.49 13.024186 18.49 24.1437209 0 13.4595349-12.1295834 22.5293024-26.2479167 22.5293024-5.5917917.1723255-11.15491667-.8852093-16.30416667-3.1018605-.59125-.1632558-.39416666-2.5576744.1075-4.4623256 1.09291667-3.6097674 4.06708334-4.9158139 4.67625-3.9181395.04872076.0776181.09747461.1553825.14628564.2332641l.29374498.4684648.29627354.4698858.29995839.4699138c2.51821883 3.9121952 5.54072572 7.6821924 12.07873742 7.6821924 9.7466667 0 14.62-5.8590698 14.62-14.9288372 0-8.1101861-4.085-13.7316279-14.9245833-18.5404186-12.32666667-5.4037675-17.59416667-13.0223721-17.59416667-22.6363256 0-11.82697673 11.23374997-18.73813953 21.28499997-18.73813953zm103.7933947 40.27191253c-2.05887.0471941-4.319726.196588-6.506749.3459819v29.6222556c0 3.7389066 2.012832 4.84071 4.658835 4.84071.557621 0 1.095456.1806236 1.095456.4696212s-.08814.4696211-1.095456.4696211c-3.003959 0-5.018591-.2709353-7.482917-.2709353s-6.945083.2709353-10.145109.2709353c-.80945 0-1.097255-.1968796-1.097255-.4696211 0-.2709353.377744-.4696212 1.097255-.4696212 3.289965 0 4.209141-1.2282398 4.209141-4.84071 0-6.9883236-.16189-19.146092-.541432-29.387445l.003179.0183705c-.499386-.0060771-1.0335-.0125957-1.587873-.0189113l-8.00452.0003782c-.39574.0116567-.740001.0267031-1.018457.0457769v29.3404195c0 3.7416262 1.991266 4.8418919 4.628821 4.8418919.558952 0 1.100437.1806676 1.100437.4715425 0 .2872615-.087337.4679291-1.100437.4679291-2.934498 0-4.9956334-.3252017-7.4585154-.3252017-2.4628821 0-6.9170306.2710014-10.0960699.2710014-.8209607 0-1.1004367-.1987344-1.1004367-.4697358s.3668122-.4679291 1.1004367-.4679291c3.2663755 0 4.1746725-1.2303464 4.1746725-4.8436985 0-6.9918365-.1746725-19.0947595-.5414847-29.3404196-1.2733625 0-2.6375546.0903338-4 .0903338-.7336245 0-.7336245-1.8066761 0-1.8066761 1.3117903-.0740737 2.6183406-.2312545 3.9126637-.4697358 0-4.7515581-.3668122-8.6539784-.4541485-11.7253277-.4541484-14.8147439 10.8296943-20.86710877 17.6244543-24.15525924 1.965065-.81119756 4.125764-.97560509 6.183406-.46973578 0 .93947156-.646288 3.72175272-.646288 4.37215611-4.087336.46973578-10.550219 1.87894313-13.6419216 3.92048711 0 5.1309601.2620087 15.4651472.2620087 27.0098074 3.9210739-.6730658 7.4118059-.5383357 7.7164379 1.5065323.986744-.0838438 1.969729-.2168079 2.943635-.3953536 0-4.7503983-.467683-8.6518661-.467683-11.7224657-.465883-14.8111278 10.864621-20.86201542 17.628026-24.2216127 1.967864-.81099956 4.140788-.97536695 6.205785-.46962113 0 .93924225-.627774 3.7208443-.627774 4.37108894-4.119202.46962112-10.596602 1.8784845-13.706689 3.91953019 0 5.1297076.269817 15.4613724.269817 27.0032147 3.435243-.5801202 6.481327-.5599954 7.449436.7665451.396145-.0497868.788375-.1001536 1.158973-.14591.032295-2.4921505-.183003-4.9824846-.645893-7.4292243 3.633152-2.0816359 7.373954-3.9561981 11.213434-5.612788-.179415 1.4168203-.448537 9.4636329-.556186 12.4970814 1.291787-.0908218 3.552416-.5267665 5.203033-.5267665 1.650618 0 2.457985.1816436 2.816815.8900538.104061.5267665.104061 1.0698809 0 1.5984639-2.529751 0-5.095385.199808-8.019848.3632872-.169972 5.3776073-.259431 10.2946651-.268377 14.7027157v1.4504316c.008946 4.2943398.098405 8.0742882.268377 11.2913881.035883 1.2678725.224268 2.5230299.556186 3.7436751 2.488485.0326958 4.928529-.6793472 7.015125-2.052573.915016-.6175883 1.094431.7974155.089707 1.7056336-2.296511 2.052573-6.387172 4.9951997-10.764897 5.1786598-2.745049 0-5.920693-1.9617512-5.920693-7.4110599h-.071766c0-11.4435484-.466479-19.3995392-.825309-28.338222zm-58.5430395-6.2510939c11.7638264.1132056 21.2092869 9.9255763 21.0999976 21.9144163 0 12.4160998-8.9581377 20.0848674-21.2128701 20.0848674-11.3589187 0-21.786191-8.7643058-21.786191-21.0525929 0-11.704 8.0444077-20.943039 21.3024515-20.943039.1988707-.0036518.3977413-.0054777.596612-.0036518zm-7.2614665 3.5093741c-4.3178223 0-7.1665101 2.7735376-7.1665101 9.6042184 0 10.6084618 9.0118865 25.3799689 20.6574656 25.3799689 4.9269757 0 7.2901324-2.0267457 7.2901324-8.5817161h-.0340409c0-12.8360562-10.2301933-26.4024712-20.747047-26.4024712zm-.6841695-16.001125c1.7941495 0 3.767714 3.0516129 4.4853738 4.5774194 0 1.5258064-3.2653521 3.6328725-4.4853738 4.5047619-1.4173781 0-3.3371181-2.9789555-4.4853738-4.5047619 0-2.2342166 2.6373998-3.4149002 4.4853738-4.5774194zm12.5590466 0c1.7941495 0 3.7856555 3.0516129 4.4853738 4.5774194 0 1.5258064-3.2653521 3.6328725-4.4853738 4.5047619-1.4173781 0-3.3371181-2.9789555-4.4853738-4.5047619 0-2.2342166 2.6373998-3.4149002 4.4853738-4.5774194z" fill="#fff"/></g></svg>